<svg id="图层_1" data-name="图层 1" xmlns="http://www.w3.org/2000/svg" viewBox="0 0 269.65 268.45"><defs><style>.cls-1{fill:#605aa5;}</style></defs><title>BABEL</title><path class="cls-1" d="M6.38,200.47H34.31c12,0,17.13,5.91,17.13,12.8a11,11,0,0,1-7.3,10.57c4.83,1.53,9.08,5.3,9.08,11.38,0,9.21-7,14.78-19.48,14.78H6.38Zm25.31,19.24c5.13,0,6.59-2.08,6.59-4.81,0-3.46-2.59-5-6.51-5H18.92v9.76ZM18.92,240.59H32.18c4.46,0,7.61-1.3,7.61-5.9,0-3.66-2.4-5.57-7.25-5.57H18.92Z"/><path class="cls-1" d="M74.3,239.3l-4,10.7H57.18l19.76-49.53H93.35L114.15,250H100.37l-4.3-10.7Zm18.25-10.16c-4.4-11-6.56-16.71-7.75-20.55h-.07c-1.13,3.77-3.65,11.17-7.19,20.55Z"/><path class="cls-1" d="M120.33,200.47h27.92c12,0,17.14,5.91,17.14,12.8a11,11,0,0,1-7.31,10.57c4.84,1.53,9.08,5.3,9.08,11.38,0,9.21-7,14.78-19.48,14.78H120.33Zm25.3,19.24c5.13,0,6.6-2.08,6.6-4.81,0-3.46-2.6-5-6.52-5H132.87v9.76Zm-12.76,20.88h13.26c4.46,0,7.6-1.3,7.6-5.9,0-3.66-2.4-5.57-7.24-5.57H132.87Z"/><path class="cls-1" d="M216.54,229.41H189.2v10.43h30.44L218.19,250H176.45V200.47H218v10.16H189.2v8.62h27.34Z"/><path class="cls-1" d="M228.43,200.47h12.74v39.37h27.42L266.94,250H228.43Z"/><path class="cls-1" d="M87.47,35.75l73.39-17.12V2.19c-27.21,7.24-48.67-7.5-73.75,0,0,9.49,0,21.48,0,30.52C87.12,33.51,87.3,34.31,87.47,35.75ZM66.78,75V85.56c4.61-1,8.29-1.87,12-2.72q48.49-11.22,97-22.42c2.11-.49,4.15-.54,4.12-3.69-.13-11.85-.05-20.58-.05-33.21-6.1,1.47-11.49-.3-16.9.95-30.59,7.12-61.18,14.28-91.82,21.22-3.47.79-4.46,2.21-4.37,5.6C66.93,59.19,66.78,67.1,66.78,75ZM61,129.73q62-14.07,124-28.17c10.67-2.43,10.68-2.41,10.68-13.28V65.4c-10.32,2.42-19.86,1.37-29.41,3.57Q112.91,81.29,59.61,93.63c-1.26.29-3.25,1.65-3.27,2.54-.22,11.33-.14,22.66-.14,34.47C58.16,130.27,59.58,130.05,61,129.73ZM42.75,140.24v15.48h129.1v-22.5a7.53,7.53,0,0,1,7.53-7.53h1.69a7.53,7.53,0,0,1,7.53,7.53v22.5h.75A17.65,17.65,0,0,0,207,138.07V102.79Z"/></svg>